<svg id="Layer_1" data-name="Layer 1" xmlns="http://www.w3.org/2000/svg" viewBox="0 0 16 16"><defs><style>.cls-1{fill:#5098ca;}</style></defs><path class="cls-1" d="M12,2.23H10.49V1.61a.07.07,0,0,0-.07-.07H5.57a.08.08,0,0,0-.08.07V6.47a.08.08,0,0,0,.08.08h4.85a.07.07,0,0,0,.07-.08V5H8.7V3.53H12V6.47A1.54,1.54,0,0,1,10.42,8H5.57A1.52,1.52,0,0,1,4,6.47V1.61A1.52,1.52,0,0,1,5.57.09h4.85A1.54,1.54,0,0,1,12,1.61Z"/><path class="cls-1" d="M12,10.13H10.49v-.6s0-.08-.06-.08H5.57a.08.08,0,0,0-.08.08v1.62a.08.08,0,0,0,.08.08h4.86A1.54,1.54,0,0,1,12,12.76v1.63a1.53,1.53,0,0,1-1.53,1.52H5.57A1.52,1.52,0,0,1,4,14.39v-.61H5.49v.61a.08.08,0,0,0,.08.07h4.86a.07.07,0,0,0,.06-.07V12.76s0-.08-.06-.08H5.57A1.52,1.52,0,0,1,4,11.15V9.53A1.52,1.52,0,0,1,5.57,8h4.86A1.54,1.54,0,0,1,12,9.53Z"/><rect class="cls-1" x="1.9" y="0.09" width="1.07" height="15.83"/><rect class="cls-1" x="13.03" y="0.09" width="1.07" height="15.83"/></svg>